<mxfile host="app.diagrams.net" modified="2023-12-02T22:30:48.274Z" agent="Mozilla/5.0 (Windows NT 10.0; Win64; x64; rv:120.0) Gecko/20100101 Firefox/120.0" etag="uz-riOZcq2xN26vYjJkF" version="22.1.5" type="device">
  <diagram id="R2lEEEUBdFMjLlhIrx00" name="Page-1">
    <mxGraphModel dx="2350" dy="1830" grid="1" gridSize="10" guides="1" tooltips="1" connect="1" arrows="1" fold="1" page="1" pageScale="1" pageWidth="850" pageHeight="1100" math="0" shadow="0" extFonts="Permanent Marker^https://fonts.googleapis.com/css?family=Permanent+Marker">
      <root>
        <mxCell id="0" />
        <mxCell id="1" parent="0" />
        <mxCell id="akXxFOU8DNpJ8hJ18WZi-14" value="Mission" style="swimlane;fontStyle=0;childLayout=stackLayout;horizontal=1;startSize=26;horizontalStack=0;resizeParent=1;resizeParentMax=0;resizeLast=0;collapsible=1;marginBottom=0;align=center;fontSize=14;" parent="1" vertex="1">
          <mxGeometry x="150" y="370" width="160" height="326" as="geometry" />
        </mxCell>
        <mxCell id="akXxFOU8DNpJ8hJ18WZi-15" value="Mission_ID" style="text;strokeColor=none;fillColor=none;spacingLeft=4;spacingRight=4;overflow=hidden;rotatable=0;points=[[0,0.5],[1,0.5]];portConstraint=eastwest;fontSize=12;whiteSpace=wrap;html=1;" parent="akXxFOU8DNpJ8hJ18WZi-14" vertex="1">
          <mxGeometry y="26" width="160" height="30" as="geometry" />
        </mxCell>
        <mxCell id="akXxFOU8DNpJ8hJ18WZi-16" value="&lt;div&gt;Vehicle_ID&lt;br&gt;&lt;/div&gt;" style="text;strokeColor=none;fillColor=none;spacingLeft=4;spacingRight=4;overflow=hidden;rotatable=0;points=[[0,0.5],[1,0.5]];portConstraint=eastwest;fontSize=12;whiteSpace=wrap;html=1;" parent="akXxFOU8DNpJ8hJ18WZi-14" vertex="1">
          <mxGeometry y="56" width="160" height="30" as="geometry" />
        </mxCell>
        <mxCell id="dKVeqmf3rWd-lL4ULNfH-48" value="Driver_ID" style="text;strokeColor=none;fillColor=none;spacingLeft=4;spacingRight=4;overflow=hidden;rotatable=0;points=[[0,0.5],[1,0.5]];portConstraint=eastwest;fontSize=12;whiteSpace=wrap;html=1;" parent="akXxFOU8DNpJ8hJ18WZi-14" vertex="1">
          <mxGeometry y="86" width="160" height="30" as="geometry" />
        </mxCell>
        <mxCell id="dKVeqmf3rWd-lL4ULNfH-49" value="Reservation_ID" style="text;strokeColor=none;fillColor=none;spacingLeft=4;spacingRight=4;overflow=hidden;rotatable=0;points=[[0,0.5],[1,0.5]];portConstraint=eastwest;fontSize=12;whiteSpace=wrap;html=1;" parent="akXxFOU8DNpJ8hJ18WZi-14" vertex="1">
          <mxGeometry y="116" width="160" height="30" as="geometry" />
        </mxCell>
        <mxCell id="dKVeqmf3rWd-lL4ULNfH-61" value="Start_Mission" style="text;strokeColor=none;fillColor=none;spacingLeft=4;spacingRight=4;overflow=hidden;rotatable=0;points=[[0,0.5],[1,0.5]];portConstraint=eastwest;fontSize=12;whiteSpace=wrap;html=1;" parent="akXxFOU8DNpJ8hJ18WZi-14" vertex="1">
          <mxGeometry y="146" width="160" height="30" as="geometry" />
        </mxCell>
        <mxCell id="dKVeqmf3rWd-lL4ULNfH-62" value="End_Mission" style="text;strokeColor=none;fillColor=none;spacingLeft=4;spacingRight=4;overflow=hidden;rotatable=0;points=[[0,0.5],[1,0.5]];portConstraint=eastwest;fontSize=12;whiteSpace=wrap;html=1;" parent="akXxFOU8DNpJ8hJ18WZi-14" vertex="1">
          <mxGeometry y="176" width="160" height="30" as="geometry" />
        </mxCell>
        <mxCell id="S5_aVqYSwiM6wcFeoej1-1" value="Actual_Start_Mission" style="text;strokeColor=none;fillColor=none;spacingLeft=4;spacingRight=4;overflow=hidden;rotatable=0;points=[[0,0.5],[1,0.5]];portConstraint=eastwest;fontSize=12;whiteSpace=wrap;html=1;" parent="akXxFOU8DNpJ8hJ18WZi-14" vertex="1">
          <mxGeometry y="206" width="160" height="30" as="geometry" />
        </mxCell>
        <mxCell id="S5_aVqYSwiM6wcFeoej1-2" value="Actual_End_Mission" style="text;strokeColor=none;fillColor=none;spacingLeft=4;spacingRight=4;overflow=hidden;rotatable=0;points=[[0,0.5],[1,0.5]];portConstraint=eastwest;fontSize=12;whiteSpace=wrap;html=1;" parent="akXxFOU8DNpJ8hJ18WZi-14" vertex="1">
          <mxGeometry y="236" width="160" height="30" as="geometry" />
        </mxCell>
        <mxCell id="dKVeqmf3rWd-lL4ULNfH-63" value="Odometer_Start" style="text;strokeColor=none;fillColor=none;spacingLeft=4;spacingRight=4;overflow=hidden;rotatable=0;points=[[0,0.5],[1,0.5]];portConstraint=eastwest;fontSize=12;whiteSpace=wrap;html=1;" parent="akXxFOU8DNpJ8hJ18WZi-14" vertex="1">
          <mxGeometry y="266" width="160" height="30" as="geometry" />
        </mxCell>
        <mxCell id="dKVeqmf3rWd-lL4ULNfH-64" value="Odometer_Return" style="text;strokeColor=none;fillColor=none;spacingLeft=4;spacingRight=4;overflow=hidden;rotatable=0;points=[[0,0.5],[1,0.5]];portConstraint=eastwest;fontSize=12;whiteSpace=wrap;html=1;" parent="akXxFOU8DNpJ8hJ18WZi-14" vertex="1">
          <mxGeometry y="296" width="160" height="30" as="geometry" />
        </mxCell>
        <mxCell id="akXxFOU8DNpJ8hJ18WZi-25" value="Driver" style="swimlane;fontStyle=0;childLayout=stackLayout;horizontal=1;startSize=26;horizontalStack=0;resizeParent=1;resizeParentMax=0;resizeLast=0;collapsible=1;marginBottom=0;align=center;fontSize=14;" parent="1" vertex="1">
          <mxGeometry x="-201" y="344" width="160" height="146" as="geometry" />
        </mxCell>
        <mxCell id="akXxFOU8DNpJ8hJ18WZi-26" value="Driver_ID" style="text;strokeColor=none;fillColor=none;spacingLeft=4;spacingRight=4;overflow=hidden;rotatable=0;points=[[0,0.5],[1,0.5]];portConstraint=eastwest;fontSize=12;whiteSpace=wrap;html=1;" parent="akXxFOU8DNpJ8hJ18WZi-25" vertex="1">
          <mxGeometry y="26" width="160" height="30" as="geometry" />
        </mxCell>
        <mxCell id="oXsoJv8cmBUGQ4QZ2bJ9-38" value="First_Name" style="text;strokeColor=none;fillColor=none;spacingLeft=4;spacingRight=4;overflow=hidden;rotatable=0;points=[[0,0.5],[1,0.5]];portConstraint=eastwest;fontSize=12;whiteSpace=wrap;html=1;" vertex="1" parent="akXxFOU8DNpJ8hJ18WZi-25">
          <mxGeometry y="56" width="160" height="30" as="geometry" />
        </mxCell>
        <mxCell id="oXsoJv8cmBUGQ4QZ2bJ9-39" value="Last_Name" style="text;strokeColor=none;fillColor=none;spacingLeft=4;spacingRight=4;overflow=hidden;rotatable=0;points=[[0,0.5],[1,0.5]];portConstraint=eastwest;fontSize=12;whiteSpace=wrap;html=1;" vertex="1" parent="akXxFOU8DNpJ8hJ18WZi-25">
          <mxGeometry y="86" width="160" height="30" as="geometry" />
        </mxCell>
        <mxCell id="oXsoJv8cmBUGQ4QZ2bJ9-40" value="License_Type" style="text;strokeColor=none;fillColor=none;spacingLeft=4;spacingRight=4;overflow=hidden;rotatable=0;points=[[0,0.5],[1,0.5]];portConstraint=eastwest;fontSize=12;whiteSpace=wrap;html=1;" vertex="1" parent="akXxFOU8DNpJ8hJ18WZi-25">
          <mxGeometry y="116" width="160" height="30" as="geometry" />
        </mxCell>
        <mxCell id="akXxFOU8DNpJ8hJ18WZi-30" value="Client" style="swimlane;fontStyle=0;childLayout=stackLayout;horizontal=1;startSize=26;horizontalStack=0;resizeParent=1;resizeParentMax=0;resizeLast=0;collapsible=1;marginBottom=0;align=center;fontSize=14;" parent="1" vertex="1">
          <mxGeometry x="-550" y="552" width="160" height="116" as="geometry" />
        </mxCell>
        <mxCell id="akXxFOU8DNpJ8hJ18WZi-31" value="Client_ID" style="text;strokeColor=none;fillColor=none;spacingLeft=4;spacingRight=4;overflow=hidden;rotatable=0;points=[[0,0.5],[1,0.5]];portConstraint=eastwest;fontSize=12;whiteSpace=wrap;html=1;" parent="akXxFOU8DNpJ8hJ18WZi-30" vertex="1">
          <mxGeometry y="26" width="160" height="30" as="geometry" />
        </mxCell>
        <mxCell id="oXsoJv8cmBUGQ4QZ2bJ9-37" value="Address" style="text;strokeColor=none;fillColor=none;spacingLeft=4;spacingRight=4;overflow=hidden;rotatable=0;points=[[0,0.5],[1,0.5]];portConstraint=eastwest;fontSize=12;whiteSpace=wrap;html=1;" vertex="1" parent="akXxFOU8DNpJ8hJ18WZi-30">
          <mxGeometry y="56" width="160" height="30" as="geometry" />
        </mxCell>
        <mxCell id="oXsoJv8cmBUGQ4QZ2bJ9-26" value="Client_Name" style="text;strokeColor=none;fillColor=none;spacingLeft=4;spacingRight=4;overflow=hidden;rotatable=0;points=[[0,0.5],[1,0.5]];portConstraint=eastwest;fontSize=12;whiteSpace=wrap;html=1;" vertex="1" parent="akXxFOU8DNpJ8hJ18WZi-30">
          <mxGeometry y="86" width="160" height="30" as="geometry" />
        </mxCell>
        <mxCell id="akXxFOU8DNpJ8hJ18WZi-37" value="Business" style="swimlane;fontStyle=0;childLayout=stackLayout;horizontal=1;startSize=26;horizontalStack=0;resizeParent=1;resizeParentMax=0;resizeLast=0;collapsible=1;marginBottom=0;align=center;fontSize=14;" parent="1" vertex="1">
          <mxGeometry x="-660" y="434" width="160" height="56" as="geometry" />
        </mxCell>
        <mxCell id="akXxFOU8DNpJ8hJ18WZi-41" value="Customer" style="swimlane;fontStyle=0;childLayout=stackLayout;horizontal=1;startSize=26;horizontalStack=0;resizeParent=1;resizeParentMax=0;resizeLast=0;collapsible=1;marginBottom=0;align=center;fontSize=14;" parent="1" vertex="1">
          <mxGeometry x="-450" y="430" width="160" height="56" as="geometry" />
        </mxCell>
        <mxCell id="HXT0rlTHmQGawke6wT0S-1" value="" style="shape=flexArrow;endArrow=classic;html=1;rounded=0;exitX=0.5;exitY=0;exitDx=0;exitDy=0;entryX=0.5;entryY=1;entryDx=0;entryDy=0;" parent="1" source="dKVeqmf3rWd-lL4ULNfH-14" target="HXT0rlTHmQGawke6wT0S-2" edge="1">
          <mxGeometry width="50" height="50" relative="1" as="geometry">
            <mxPoint x="455" y="150" as="sourcePoint" />
            <mxPoint x="460" y="40" as="targetPoint" />
          </mxGeometry>
        </mxCell>
        <mxCell id="HXT0rlTHmQGawke6wT0S-2" value="Tourist" style="swimlane;fontStyle=0;childLayout=stackLayout;horizontal=1;startSize=26;horizontalStack=0;resizeParent=1;resizeParentMax=0;resizeLast=0;collapsible=1;marginBottom=0;align=center;fontSize=14;" parent="1" vertex="1">
          <mxGeometry x="381" y="-16" width="160" height="56" as="geometry" />
        </mxCell>
        <mxCell id="HXT0rlTHmQGawke6wT0S-6" value="" style="shape=flexArrow;endArrow=classic;html=1;rounded=0;exitX=0.306;exitY=0;exitDx=0;exitDy=0;exitPerimeter=0;entryX=0.5;entryY=1;entryDx=0;entryDy=0;" parent="1" source="dKVeqmf3rWd-lL4ULNfH-14" target="HXT0rlTHmQGawke6wT0S-7" edge="1">
          <mxGeometry width="50" height="50" relative="1" as="geometry">
            <mxPoint x="430" y="150" as="sourcePoint" />
            <mxPoint x="250" y="60" as="targetPoint" />
            <Array as="points">
              <mxPoint x="430" y="90" />
              <mxPoint x="280" y="90" />
            </Array>
          </mxGeometry>
        </mxCell>
        <mxCell id="HXT0rlTHmQGawke6wT0S-7" value="Heavyweight" style="swimlane;fontStyle=0;childLayout=stackLayout;horizontal=1;startSize=30;horizontalStack=0;resizeParent=1;resizeParentMax=0;resizeLast=0;collapsible=1;marginBottom=0;whiteSpace=wrap;html=1;" parent="1" vertex="1">
          <mxGeometry x="210" y="-18" width="140" height="60" as="geometry" />
        </mxCell>
        <mxCell id="HXT0rlTHmQGawke6wT0S-11" value="Super Heavyweight" style="swimlane;fontStyle=0;childLayout=stackLayout;horizontal=1;startSize=30;horizontalStack=0;resizeParent=1;resizeParentMax=0;resizeLast=0;collapsible=1;marginBottom=0;whiteSpace=wrap;html=1;" parent="1" vertex="1">
          <mxGeometry x="575" y="-18" width="140" height="60" as="geometry" />
        </mxCell>
        <mxCell id="HXT0rlTHmQGawke6wT0S-15" value="" style="shape=flexArrow;endArrow=classic;html=1;rounded=0;entryX=0.5;entryY=1;entryDx=0;entryDy=0;exitX=0.675;exitY=0.014;exitDx=0;exitDy=0;exitPerimeter=0;" parent="1" source="dKVeqmf3rWd-lL4ULNfH-14" target="HXT0rlTHmQGawke6wT0S-11" edge="1">
          <mxGeometry width="50" height="50" relative="1" as="geometry">
            <mxPoint x="490" y="160" as="sourcePoint" />
            <mxPoint x="683.94" y="22.00999999999999" as="targetPoint" />
            <Array as="points">
              <mxPoint x="490" y="90" />
              <mxPoint x="645" y="90" />
            </Array>
          </mxGeometry>
        </mxCell>
        <mxCell id="HXT0rlTHmQGawke6wT0S-26" value="Line Order" style="swimlane;fontStyle=0;childLayout=stackLayout;horizontal=1;startSize=26;horizontalStack=0;resizeParent=1;resizeParentMax=0;resizeLast=0;collapsible=1;marginBottom=0;align=center;fontSize=14;" parent="1" vertex="1">
          <mxGeometry x="-100" y="215" width="160" height="86" as="geometry" />
        </mxCell>
        <mxCell id="HXT0rlTHmQGawke6wT0S-27" value="Mission_ID" style="text;strokeColor=none;fillColor=none;spacingLeft=4;spacingRight=4;overflow=hidden;rotatable=0;points=[[0,0.5],[1,0.5]];portConstraint=eastwest;fontSize=12;whiteSpace=wrap;html=1;" parent="HXT0rlTHmQGawke6wT0S-26" vertex="1">
          <mxGeometry y="26" width="160" height="30" as="geometry" />
        </mxCell>
        <mxCell id="HXT0rlTHmQGawke6wT0S-28" value="Invoice_ID" style="text;strokeColor=none;fillColor=none;spacingLeft=4;spacingRight=4;overflow=hidden;rotatable=0;points=[[0,0.5],[1,0.5]];portConstraint=eastwest;fontSize=12;whiteSpace=wrap;html=1;" parent="HXT0rlTHmQGawke6wT0S-26" vertex="1">
          <mxGeometry y="56" width="160" height="30" as="geometry" />
        </mxCell>
        <mxCell id="HXT0rlTHmQGawke6wT0S-30" value="Invoice" style="swimlane;fontStyle=0;childLayout=stackLayout;horizontal=1;startSize=26;horizontalStack=0;resizeParent=1;resizeParentMax=0;resizeLast=0;collapsible=1;marginBottom=0;align=center;fontSize=14;" parent="1" vertex="1">
          <mxGeometry x="-420" y="215" width="160" height="150" as="geometry" />
        </mxCell>
        <mxCell id="HXT0rlTHmQGawke6wT0S-31" value="Invoice_ID" style="text;strokeColor=none;fillColor=none;spacingLeft=4;spacingRight=4;overflow=hidden;rotatable=0;points=[[0,0.5],[1,0.5]];portConstraint=eastwest;fontSize=12;whiteSpace=wrap;html=1;" parent="HXT0rlTHmQGawke6wT0S-30" vertex="1">
          <mxGeometry y="26" width="160" height="30" as="geometry" />
        </mxCell>
        <mxCell id="dKVeqmf3rWd-lL4ULNfH-33" value="Tax_id" style="text;strokeColor=none;fillColor=none;spacingLeft=4;spacingRight=4;overflow=hidden;rotatable=0;points=[[0,0.5],[1,0.5]];portConstraint=eastwest;fontSize=12;whiteSpace=wrap;html=1;" parent="HXT0rlTHmQGawke6wT0S-30" vertex="1">
          <mxGeometry y="56" width="160" height="30" as="geometry" />
        </mxCell>
        <mxCell id="HXT0rlTHmQGawke6wT0S-32" value="Payment_Type" style="text;strokeColor=none;fillColor=none;spacingLeft=4;spacingRight=4;overflow=hidden;rotatable=0;points=[[0,0.5],[1,0.5]];portConstraint=eastwest;fontSize=12;whiteSpace=wrap;html=1;" parent="HXT0rlTHmQGawke6wT0S-30" vertex="1">
          <mxGeometry y="86" width="160" height="30" as="geometry" />
        </mxCell>
        <mxCell id="HXT0rlTHmQGawke6wT0S-33" value="isPaid" style="text;strokeColor=none;fillColor=none;spacingLeft=4;spacingRight=4;overflow=hidden;rotatable=0;points=[[0,0.5],[1,0.5]];portConstraint=eastwest;fontSize=12;whiteSpace=wrap;html=1;" parent="HXT0rlTHmQGawke6wT0S-30" vertex="1">
          <mxGeometry y="116" width="160" height="34" as="geometry" />
        </mxCell>
        <mxCell id="HXT0rlTHmQGawke6wT0S-34" value="" style="fontSize=12;html=1;endArrow=ERoneToMany;rounded=0;exitX=0.5;exitY=0;exitDx=0;exitDy=0;entryX=1;entryY=0.5;entryDx=0;entryDy=0;" parent="1" source="akXxFOU8DNpJ8hJ18WZi-14" target="HXT0rlTHmQGawke6wT0S-27" edge="1">
          <mxGeometry width="100" height="100" relative="1" as="geometry">
            <mxPoint x="230" y="300" as="sourcePoint" />
            <mxPoint x="100" y="280" as="targetPoint" />
            <Array as="points">
              <mxPoint x="230" y="256" />
            </Array>
          </mxGeometry>
        </mxCell>
        <mxCell id="HXT0rlTHmQGawke6wT0S-35" value="" style="fontSize=12;html=1;endArrow=ERoneToMany;rounded=0;exitX=1;exitY=0.5;exitDx=0;exitDy=0;entryX=0;entryY=0.5;entryDx=0;entryDy=0;" parent="1" source="HXT0rlTHmQGawke6wT0S-31" target="HXT0rlTHmQGawke6wT0S-27" edge="1">
          <mxGeometry width="100" height="100" relative="1" as="geometry">
            <mxPoint x="-120" y="330" as="sourcePoint" />
            <mxPoint x="-120" y="208" as="targetPoint" />
          </mxGeometry>
        </mxCell>
        <mxCell id="HXT0rlTHmQGawke6wT0S-40" value="Reservation" style="swimlane;fontStyle=0;childLayout=stackLayout;horizontal=1;startSize=26;horizontalStack=0;resizeParent=1;resizeParentMax=0;resizeLast=0;collapsible=1;marginBottom=0;align=center;fontSize=14;" parent="1" vertex="1">
          <mxGeometry x="-201" y="522" width="160" height="200" as="geometry" />
        </mxCell>
        <mxCell id="dKVeqmf3rWd-lL4ULNfH-50" value="Reservation_ID" style="text;strokeColor=none;fillColor=none;spacingLeft=4;spacingRight=4;overflow=hidden;rotatable=0;points=[[0,0.5],[1,0.5]];portConstraint=eastwest;fontSize=12;whiteSpace=wrap;html=1;" parent="HXT0rlTHmQGawke6wT0S-40" vertex="1">
          <mxGeometry y="26" width="160" height="30" as="geometry" />
        </mxCell>
        <mxCell id="HXT0rlTHmQGawke6wT0S-41" value="Client_ID" style="text;strokeColor=none;fillColor=none;spacingLeft=4;spacingRight=4;overflow=hidden;rotatable=0;points=[[0,0.5],[1,0.5]];portConstraint=eastwest;fontSize=12;whiteSpace=wrap;html=1;" parent="HXT0rlTHmQGawke6wT0S-40" vertex="1">
          <mxGeometry y="56" width="160" height="30" as="geometry" />
        </mxCell>
        <mxCell id="HXT0rlTHmQGawke6wT0S-42" value="Vehicle_Type" style="text;strokeColor=none;fillColor=none;spacingLeft=4;spacingRight=4;overflow=hidden;rotatable=0;points=[[0,0.5],[1,0.5]];portConstraint=eastwest;fontSize=12;whiteSpace=wrap;html=1;" parent="HXT0rlTHmQGawke6wT0S-40" vertex="1">
          <mxGeometry y="86" width="160" height="30" as="geometry" />
        </mxCell>
        <mxCell id="HXT0rlTHmQGawke6wT0S-43" value="&lt;div&gt;Location&lt;/div&gt;&lt;div&gt;&lt;br&gt;&lt;/div&gt;&lt;div&gt;Appointment_Date&lt;/div&gt;&lt;div&gt;&lt;br&gt;&lt;/div&gt;&lt;div&gt;Reservation_Length&lt;br&gt;&lt;/div&gt;&lt;div&gt;&lt;br&gt;&lt;/div&gt;&lt;div&gt;&lt;br&gt;&lt;/div&gt;" style="text;strokeColor=none;fillColor=none;spacingLeft=4;spacingRight=4;overflow=hidden;rotatable=0;points=[[0,0.5],[1,0.5]];portConstraint=eastwest;fontSize=12;whiteSpace=wrap;html=1;" parent="HXT0rlTHmQGawke6wT0S-40" vertex="1">
          <mxGeometry y="116" width="160" height="84" as="geometry" />
        </mxCell>
        <mxCell id="HXT0rlTHmQGawke6wT0S-44" value="Concerns" style="text;html=1;strokeColor=none;fillColor=none;align=center;verticalAlign=middle;whiteSpace=wrap;rounded=0;" parent="1" vertex="1">
          <mxGeometry x="570" y="50" width="60" height="30" as="geometry" />
        </mxCell>
        <mxCell id="HXT0rlTHmQGawke6wT0S-45" value="Concerns" style="text;html=1;strokeColor=none;fillColor=none;align=center;verticalAlign=middle;whiteSpace=wrap;rounded=0;" parent="1" vertex="1">
          <mxGeometry x="381" y="40" width="60" height="30" as="geometry" />
        </mxCell>
        <mxCell id="HXT0rlTHmQGawke6wT0S-46" value="Concerns" style="text;html=1;strokeColor=none;fillColor=none;align=center;verticalAlign=middle;whiteSpace=wrap;rounded=0;" parent="1" vertex="1">
          <mxGeometry x="203" y="40" width="60" height="30" as="geometry" />
        </mxCell>
        <mxCell id="HXT0rlTHmQGawke6wT0S-47" value="Concerns" style="text;html=1;strokeColor=none;fillColor=none;align=center;verticalAlign=middle;whiteSpace=wrap;rounded=0;" parent="1" vertex="1">
          <mxGeometry x="-350" y="490" width="60" height="30" as="geometry" />
        </mxCell>
        <mxCell id="HXT0rlTHmQGawke6wT0S-48" value="Concerns" style="text;html=1;strokeColor=none;fillColor=none;align=center;verticalAlign=middle;whiteSpace=wrap;rounded=0;" parent="1" vertex="1">
          <mxGeometry x="-620" y="492" width="60" height="30" as="geometry" />
        </mxCell>
        <mxCell id="9CHubEAWElx0CJi55Ytn-6" value="Tax" style="swimlane;fontStyle=0;childLayout=stackLayout;horizontal=1;startSize=26;horizontalStack=0;resizeParent=1;resizeParentMax=0;resizeLast=0;collapsible=1;marginBottom=0;align=center;fontSize=14;" parent="1" vertex="1">
          <mxGeometry x="-420" y="-18" width="160" height="116" as="geometry" />
        </mxCell>
        <mxCell id="9CHubEAWElx0CJi55Ytn-7" value="Tax_id" style="text;strokeColor=none;fillColor=none;spacingLeft=4;spacingRight=4;overflow=hidden;rotatable=0;points=[[0,0.5],[1,0.5]];portConstraint=eastwest;fontSize=12;whiteSpace=wrap;html=1;" parent="9CHubEAWElx0CJi55Ytn-6" vertex="1">
          <mxGeometry y="26" width="160" height="30" as="geometry" />
        </mxCell>
        <mxCell id="9CHubEAWElx0CJi55Ytn-8" value="Federal_tax" style="text;strokeColor=none;fillColor=none;spacingLeft=4;spacingRight=4;overflow=hidden;rotatable=0;points=[[0,0.5],[1,0.5]];portConstraint=eastwest;fontSize=12;whiteSpace=wrap;html=1;" parent="9CHubEAWElx0CJi55Ytn-6" vertex="1">
          <mxGeometry y="56" width="160" height="30" as="geometry" />
        </mxCell>
        <mxCell id="9CHubEAWElx0CJi55Ytn-9" value="Provincial_tax" style="text;strokeColor=none;fillColor=none;spacingLeft=4;spacingRight=4;overflow=hidden;rotatable=0;points=[[0,0.5],[1,0.5]];portConstraint=eastwest;fontSize=12;whiteSpace=wrap;html=1;" parent="9CHubEAWElx0CJi55Ytn-6" vertex="1">
          <mxGeometry y="86" width="160" height="30" as="geometry" />
        </mxCell>
        <mxCell id="9CHubEAWElx0CJi55Ytn-10" value="" style="fontSize=12;html=1;endArrow=ERoneToMany;rounded=0;entryX=0.5;entryY=0;entryDx=0;entryDy=0;exitX=0.5;exitY=1;exitDx=0;exitDy=0;" parent="1" source="9CHubEAWElx0CJi55Ytn-6" target="HXT0rlTHmQGawke6wT0S-30" edge="1">
          <mxGeometry width="100" height="100" relative="1" as="geometry">
            <mxPoint x="-340" y="200" as="sourcePoint" />
            <mxPoint x="710" y="870" as="targetPoint" />
          </mxGeometry>
        </mxCell>
        <mxCell id="dKVeqmf3rWd-lL4ULNfH-1" value="1" style="text;html=1;strokeColor=none;fillColor=none;align=center;verticalAlign=middle;whiteSpace=wrap;rounded=0;" parent="1" vertex="1">
          <mxGeometry x="-41" y="410" width="60" height="30" as="geometry" />
        </mxCell>
        <mxCell id="dKVeqmf3rWd-lL4ULNfH-2" value="N" style="text;html=1;strokeColor=none;fillColor=none;align=center;verticalAlign=middle;whiteSpace=wrap;rounded=0;" parent="1" vertex="1">
          <mxGeometry x="100" y="400" width="60" height="30" as="geometry" />
        </mxCell>
        <mxCell id="dKVeqmf3rWd-lL4ULNfH-5" value="" style="endArrow=classic;html=1;rounded=0;" parent="1" edge="1">
          <mxGeometry width="50" height="50" relative="1" as="geometry">
            <mxPoint x="90" y="354.29" as="sourcePoint" />
            <mxPoint y="354.29" as="targetPoint" />
          </mxGeometry>
        </mxCell>
        <mxCell id="dKVeqmf3rWd-lL4ULNfH-9" value="" style="fontSize=12;html=1;endArrow=ERoneToMany;rounded=0;entryX=1.006;entryY=0.233;entryDx=0;entryDy=0;entryPerimeter=0;exitX=0.5;exitY=1.019;exitDx=0;exitDy=0;exitPerimeter=0;" parent="1" source="dKVeqmf3rWd-lL4ULNfH-17" target="akXxFOU8DNpJ8hJ18WZi-16" edge="1">
          <mxGeometry width="100" height="100" relative="1" as="geometry">
            <mxPoint x="460" y="310" as="sourcePoint" />
            <mxPoint x="326" y="439" as="targetPoint" />
            <Array as="points">
              <mxPoint x="460" y="433" />
            </Array>
          </mxGeometry>
        </mxCell>
        <mxCell id="dKVeqmf3rWd-lL4ULNfH-14" value="Vehicle" style="swimlane;fontStyle=0;childLayout=stackLayout;horizontal=1;startSize=26;horizontalStack=0;resizeParent=1;resizeParentMax=0;resizeLast=0;collapsible=1;marginBottom=0;align=center;fontSize=14;" parent="1" vertex="1">
          <mxGeometry x="381" y="130" width="160" height="140" as="geometry" />
        </mxCell>
        <mxCell id="dKVeqmf3rWd-lL4ULNfH-15" value="Vehicle_ID" style="text;strokeColor=none;fillColor=none;spacingLeft=4;spacingRight=4;overflow=hidden;rotatable=0;points=[[0,0.5],[1,0.5]];portConstraint=eastwest;fontSize=12;whiteSpace=wrap;html=1;" parent="dKVeqmf3rWd-lL4ULNfH-14" vertex="1">
          <mxGeometry y="26" width="160" height="30" as="geometry" />
        </mxCell>
        <mxCell id="dKVeqmf3rWd-lL4ULNfH-16" value="Brand_Name" style="text;strokeColor=none;fillColor=none;spacingLeft=4;spacingRight=4;overflow=hidden;rotatable=0;points=[[0,0.5],[1,0.5]];portConstraint=eastwest;fontSize=12;whiteSpace=wrap;html=1;" parent="dKVeqmf3rWd-lL4ULNfH-14" vertex="1">
          <mxGeometry y="56" width="160" height="30" as="geometry" />
        </mxCell>
        <mxCell id="dKVeqmf3rWd-lL4ULNfH-17" value="&lt;div&gt;Hourly_Rate&lt;br&gt;&lt;/div&gt;&lt;div&gt;&lt;br&gt;&lt;/div&gt;&lt;div&gt;Kilometer_Rate&lt;/div&gt;" style="text;strokeColor=none;fillColor=none;spacingLeft=4;spacingRight=4;overflow=hidden;rotatable=0;points=[[0,0.5],[1,0.5]];portConstraint=eastwest;fontSize=12;whiteSpace=wrap;html=1;" parent="dKVeqmf3rWd-lL4ULNfH-14" vertex="1">
          <mxGeometry y="86" width="160" height="54" as="geometry" />
        </mxCell>
        <mxCell id="dKVeqmf3rWd-lL4ULNfH-19" value="&lt;font style=&quot;font-size: 18px;&quot;&gt;Is assigned&lt;/font&gt;" style="text;html=1;strokeColor=#666666;fillColor=#f5f5f5;align=center;verticalAlign=middle;whiteSpace=wrap;rounded=0;fontColor=#333333;" parent="1" vertex="1">
          <mxGeometry x="411" y="360" width="100" height="30" as="geometry" />
        </mxCell>
        <mxCell id="dKVeqmf3rWd-lL4ULNfH-20" value="N" style="text;html=1;strokeColor=none;fillColor=none;align=center;verticalAlign=middle;whiteSpace=wrap;rounded=0;" parent="1" vertex="1">
          <mxGeometry x="310" y="390" width="60" height="40" as="geometry" />
        </mxCell>
        <mxCell id="dKVeqmf3rWd-lL4ULNfH-21" value="1" style="text;html=1;strokeColor=none;fillColor=none;align=center;verticalAlign=middle;whiteSpace=wrap;rounded=0;" parent="1" vertex="1">
          <mxGeometry x="400" y="270" width="60" height="30" as="geometry" />
        </mxCell>
        <mxCell id="dKVeqmf3rWd-lL4ULNfH-22" value="" style="endArrow=classic;html=1;rounded=0;" parent="1" edge="1">
          <mxGeometry width="50" height="50" relative="1" as="geometry">
            <mxPoint x="520" y="400" as="sourcePoint" />
            <mxPoint x="520" y="330" as="targetPoint" />
          </mxGeometry>
        </mxCell>
        <mxCell id="dKVeqmf3rWd-lL4ULNfH-23" value="1" style="text;html=1;strokeColor=none;fillColor=none;align=center;verticalAlign=middle;whiteSpace=wrap;rounded=0;" parent="1" vertex="1">
          <mxGeometry x="180" y="340" width="60" height="30" as="geometry" />
        </mxCell>
        <mxCell id="dKVeqmf3rWd-lL4ULNfH-24" value="N" style="text;html=1;strokeColor=none;fillColor=none;align=center;verticalAlign=middle;whiteSpace=wrap;rounded=0;" parent="1" vertex="1">
          <mxGeometry x="50" y="230" width="60" height="30" as="geometry" />
        </mxCell>
        <mxCell id="dKVeqmf3rWd-lL4ULNfH-25" value="&lt;font style=&quot;font-size: 18px;&quot;&gt;Appears in&lt;/font&gt;" style="text;html=1;strokeColor=#666666;fillColor=#f5f5f5;align=center;verticalAlign=middle;whiteSpace=wrap;rounded=0;fontColor=#333333;" parent="1" vertex="1">
          <mxGeometry x="110" y="243" width="100" height="30" as="geometry" />
        </mxCell>
        <mxCell id="dKVeqmf3rWd-lL4ULNfH-28" value="N" style="text;html=1;strokeColor=none;fillColor=none;align=center;verticalAlign=middle;whiteSpace=wrap;rounded=0;" parent="1" vertex="1">
          <mxGeometry x="-145" y="260" width="60" height="30" as="geometry" />
        </mxCell>
        <mxCell id="dKVeqmf3rWd-lL4ULNfH-30" value="1" style="text;html=1;strokeColor=none;fillColor=none;align=center;verticalAlign=middle;whiteSpace=wrap;rounded=0;" parent="1" vertex="1">
          <mxGeometry x="-280" y="260" width="60" height="30" as="geometry" />
        </mxCell>
        <mxCell id="dKVeqmf3rWd-lL4ULNfH-32" value="&lt;font style=&quot;font-size: 18px;&quot;&gt;Includes&lt;br&gt;&lt;/font&gt;" style="text;html=1;strokeColor=#666666;fillColor=#f5f5f5;align=center;verticalAlign=middle;whiteSpace=wrap;rounded=0;fontColor=#333333;" parent="1" vertex="1">
          <mxGeometry x="-230" y="243" width="100" height="30" as="geometry" />
        </mxCell>
        <mxCell id="dKVeqmf3rWd-lL4ULNfH-34" value="N" style="text;html=1;strokeColor=none;fillColor=none;align=center;verticalAlign=middle;whiteSpace=wrap;rounded=0;" parent="1" vertex="1">
          <mxGeometry x="-340" y="185" width="60" height="30" as="geometry" />
        </mxCell>
        <mxCell id="dKVeqmf3rWd-lL4ULNfH-40" value="1" style="text;html=1;strokeColor=none;fillColor=none;align=center;verticalAlign=middle;whiteSpace=wrap;rounded=0;" parent="1" vertex="1">
          <mxGeometry x="-350" y="100" width="60" height="30" as="geometry" />
        </mxCell>
        <mxCell id="dKVeqmf3rWd-lL4ULNfH-42" value="&lt;font style=&quot;font-size: 18px;&quot;&gt;Has&lt;br&gt;&lt;/font&gt;" style="text;html=1;strokeColor=#666666;fillColor=#f5f5f5;align=center;verticalAlign=middle;whiteSpace=wrap;rounded=0;fontColor=#333333;" parent="1" vertex="1">
          <mxGeometry x="-390" y="150" width="100" height="30" as="geometry" />
        </mxCell>
        <mxCell id="dKVeqmf3rWd-lL4ULNfH-44" value="" style="endArrow=classic;html=1;rounded=0;" parent="1" edge="1">
          <mxGeometry width="50" height="50" relative="1" as="geometry">
            <mxPoint x="213" y="234" as="sourcePoint" />
            <mxPoint x="120" y="234" as="targetPoint" />
          </mxGeometry>
        </mxCell>
        <mxCell id="dKVeqmf3rWd-lL4ULNfH-45" value="" style="endArrow=classic;html=1;rounded=0;" parent="1" edge="1">
          <mxGeometry width="50" height="50" relative="1" as="geometry">
            <mxPoint x="-230" y="230" as="sourcePoint" />
            <mxPoint x="-140" y="230" as="targetPoint" />
          </mxGeometry>
        </mxCell>
        <mxCell id="dKVeqmf3rWd-lL4ULNfH-46" value="" style="endArrow=classic;html=1;rounded=0;" parent="1" edge="1">
          <mxGeometry width="50" height="50" relative="1" as="geometry">
            <mxPoint x="-270" y="190" as="sourcePoint" />
            <mxPoint x="-270" y="120" as="targetPoint" />
          </mxGeometry>
        </mxCell>
        <mxCell id="dKVeqmf3rWd-lL4ULNfH-51" value="" style="fontSize=12;html=1;endArrow=ERoneToMany;rounded=0;exitX=1;exitY=0.5;exitDx=0;exitDy=0;entryX=0;entryY=0.5;entryDx=0;entryDy=0;" parent="1" source="dKVeqmf3rWd-lL4ULNfH-50" target="dKVeqmf3rWd-lL4ULNfH-49" edge="1">
          <mxGeometry width="100" height="100" relative="1" as="geometry">
            <mxPoint x="171" y="660" as="sourcePoint" />
            <mxPoint x="80" y="570" as="targetPoint" />
            <Array as="points">
              <mxPoint x="80" y="563" />
              <mxPoint x="80" y="501" />
            </Array>
          </mxGeometry>
        </mxCell>
        <mxCell id="dKVeqmf3rWd-lL4ULNfH-52" value="1" style="text;html=1;strokeColor=none;fillColor=none;align=center;verticalAlign=middle;whiteSpace=wrap;rounded=0;" parent="1" vertex="1">
          <mxGeometry x="-60" y="532" width="60" height="30" as="geometry" />
        </mxCell>
        <mxCell id="dKVeqmf3rWd-lL4ULNfH-55" value="N" style="text;html=1;strokeColor=none;fillColor=none;align=center;verticalAlign=middle;whiteSpace=wrap;rounded=0;" parent="1" vertex="1">
          <mxGeometry x="100" y="470" width="60" height="30" as="geometry" />
        </mxCell>
        <mxCell id="dKVeqmf3rWd-lL4ULNfH-56" value="&lt;font style=&quot;font-size: 18px;&quot;&gt;Made from&lt;br&gt;&lt;/font&gt;" style="text;html=1;strokeColor=#666666;fillColor=#f5f5f5;align=center;verticalAlign=middle;whiteSpace=wrap;rounded=0;fontColor=#333333;" parent="1" vertex="1">
          <mxGeometry x="10" y="542" width="120" height="30" as="geometry" />
        </mxCell>
        <mxCell id="dKVeqmf3rWd-lL4ULNfH-57" value="" style="endArrow=classic;html=1;rounded=0;" parent="1" edge="1">
          <mxGeometry width="50" height="50" relative="1" as="geometry">
            <mxPoint x="109.75" y="586" as="sourcePoint" />
            <mxPoint x="30.25" y="586" as="targetPoint" />
          </mxGeometry>
        </mxCell>
        <mxCell id="dKVeqmf3rWd-lL4ULNfH-58" value="" style="fontSize=12;html=1;endArrow=ERoneToMany;rounded=0;entryX=0;entryY=0.5;entryDx=0;entryDy=0;exitX=1;exitY=0.5;exitDx=0;exitDy=0;" parent="1" source="akXxFOU8DNpJ8hJ18WZi-31" target="HXT0rlTHmQGawke6wT0S-41" edge="1">
          <mxGeometry width="100" height="100" relative="1" as="geometry">
            <mxPoint x="-340" y="602" as="sourcePoint" />
            <mxPoint x="-470" y="702" as="targetPoint" />
          </mxGeometry>
        </mxCell>
        <mxCell id="dKVeqmf3rWd-lL4ULNfH-65" value="&lt;font style=&quot;font-size: 18px;&quot;&gt;Requested by&lt;br&gt;&lt;/font&gt;" style="text;html=1;strokeColor=#666666;fillColor=#f5f5f5;align=center;verticalAlign=middle;whiteSpace=wrap;rounded=0;fontColor=#333333;" parent="1" vertex="1">
          <mxGeometry x="-360" y="582" width="120" height="30" as="geometry" />
        </mxCell>
        <mxCell id="dKVeqmf3rWd-lL4ULNfH-67" value="1" style="text;html=1;strokeColor=none;fillColor=none;align=center;verticalAlign=middle;whiteSpace=wrap;rounded=0;" parent="1" vertex="1">
          <mxGeometry x="-400" y="562" width="60" height="30" as="geometry" />
        </mxCell>
        <mxCell id="dKVeqmf3rWd-lL4ULNfH-68" value="N" style="text;html=1;strokeColor=none;fillColor=none;align=center;verticalAlign=middle;whiteSpace=wrap;rounded=0;" parent="1" vertex="1">
          <mxGeometry x="-250" y="562" width="60" height="30" as="geometry" />
        </mxCell>
        <mxCell id="dKVeqmf3rWd-lL4ULNfH-69" value="" style="endArrow=classic;html=1;rounded=0;entryX=0.75;entryY=0;entryDx=0;entryDy=0;exitX=0;exitY=0;exitDx=0;exitDy=0;" parent="1" source="dKVeqmf3rWd-lL4ULNfH-68" target="dKVeqmf3rWd-lL4ULNfH-67" edge="1">
          <mxGeometry width="50" height="50" relative="1" as="geometry">
            <mxPoint x="-260.5" y="562" as="sourcePoint" />
            <mxPoint x="-330" y="562" as="targetPoint" />
          </mxGeometry>
        </mxCell>
        <mxCell id="oXsoJv8cmBUGQ4QZ2bJ9-44" value="" style="fontSize=12;html=1;endArrow=ERoneToMany;rounded=0;exitX=1;exitY=0.5;exitDx=0;exitDy=0;entryX=0;entryY=0.053;entryDx=0;entryDy=0;entryPerimeter=0;" edge="1" parent="1" source="akXxFOU8DNpJ8hJ18WZi-26" target="akXxFOU8DNpJ8hJ18WZi-14">
          <mxGeometry width="100" height="100" relative="1" as="geometry">
            <mxPoint x="-80" y="412" as="sourcePoint" />
            <mxPoint x="111" y="350" as="targetPoint" />
            <Array as="points" />
          </mxGeometry>
        </mxCell>
        <mxCell id="dKVeqmf3rWd-lL4ULNfH-3" value="&lt;font style=&quot;font-size: 18px;&quot;&gt;Has&lt;/font&gt;" style="text;html=1;strokeColor=#666666;fillColor=#f5f5f5;align=center;verticalAlign=middle;whiteSpace=wrap;rounded=0;fontColor=#333333;" parent="1" vertex="1">
          <mxGeometry y="371" width="100" height="30" as="geometry" />
        </mxCell>
        <mxCell id="oXsoJv8cmBUGQ4QZ2bJ9-46" value="" style="shape=flexArrow;endArrow=classic;html=1;rounded=0;entryX=0.5;entryY=1;entryDx=0;entryDy=0;" edge="1" parent="1" target="akXxFOU8DNpJ8hJ18WZi-41">
          <mxGeometry width="50" height="50" relative="1" as="geometry">
            <mxPoint x="-440" y="550" as="sourcePoint" />
            <mxPoint x="-340" y="760" as="targetPoint" />
            <Array as="points">
              <mxPoint x="-440" y="520" />
              <mxPoint x="-370" y="520" />
            </Array>
          </mxGeometry>
        </mxCell>
        <mxCell id="oXsoJv8cmBUGQ4QZ2bJ9-47" value="" style="shape=flexArrow;endArrow=classic;html=1;rounded=0;entryX=0.75;entryY=1;entryDx=0;entryDy=0;exitX=0.438;exitY=0.007;exitDx=0;exitDy=0;exitPerimeter=0;" edge="1" parent="1" source="akXxFOU8DNpJ8hJ18WZi-30" target="akXxFOU8DNpJ8hJ18WZi-37">
          <mxGeometry width="50" height="50" relative="1" as="geometry">
            <mxPoint x="-505" y="550" as="sourcePoint" />
            <mxPoint x="-560" y="490" as="targetPoint" />
            <Array as="points">
              <mxPoint x="-480" y="520" />
              <mxPoint x="-540" y="520" />
            </Array>
          </mxGeometry>
        </mxCell>
      </root>
    </mxGraphModel>
  </diagram>
</mxfile>
